#!OML:ASF X:\für Bonn\!DataBase\2005_08_11_Bastian_Final\c3d\Bastian.ASF
:FULLY-SPECIFIED
:DEGREES
77
root -19.0323 16.3791 -20.1701 170.751 124.393 -554.25
lowerback 11.9598 -4.21537 4.15891
upperback 7.77237 -4.90781 3.43776
thorax 1.4295 -2.2839 1.77159
lowerneck -6.4276 4.86653 -6.40442
upperneck -6.58646 6.96653 0.400164
head -1.22966 3.67068 1.23477
rclavicle -3.926e-015 -2.36554e-014
rhumerus -50.5975 16.3733 -85.5063
rradius 61.3441
rwrist 4.83236
rhand -16.6823 12.6416
rfingers 7.12502
rthumb 9.54184 -17.1224
lclavicle -3.926e-015 -2.36554e-014
lhumerus -25.4866 -24.7029 94.6088
lradius 103.903
lwrist 203.241
lhand -28.7326 16.0955
lfingers 7.12502
lthumb -2.09347 46.065
rfemur -37.7653 -3.37004 27.3873
rtibia 57.7809
rfoot -22.8663 0.305367
rtoes -23.4029
lfemur 8.68359 -7.79074 -8.62555
ltibia 52.7588
lfoot 0.629072 0.564667
ltoes -44.5073
78
root -18.9112 16.3539 -20.0126 169.981 124.654 -554.728
lowerback 12.8295 -4.14474 4.64277
upperback 7.95029 -4.68837 3.51084
thorax 1.12398 -2.15279 1.61169
lowerneck -6.73603 4.84619 -6.59362
upperneck -6.82028 6.96623 0.103679
head -1.24836 3.6858 1.17748
rclavicle -6.25178e-014 -8.15017e-015
rhumerus -49.6565 17.0783 -85.7872
rradius 62.8735
rwrist 4.69739
rhand -16.7774 12.7915
rfingers 7.12502
rthumb 9.45012 -16.9766
lclavicle -6.25178e-014 -8.15017e-015
lhumerus -26.1719 -23.9374 94.6023
lradius 102.946
lwrist 202.77
lhand -28.5194 16.2009
lfingers 7.12502
lthumb -1.88752 46.1723
rfemur -36.7619 -3.13166 27.9381
rtibia 58.1067
rfoot -23.1197 0.0599869
rtoes -22.2358
lfemur 6.40475 -8.0733 -8.36292
ltibia 57.5743
lfoot 3.75213 0.497181
ltoes -43.3247
79
root -18.7901 16.3317 -19.8559 169.38 124.957 -555.25
lowerback 13.5065 -4.0505 5.12321
upperback 8.07163 -4.44622 3.61165
thorax 0.869877 -2.01297 1.46372
lowerneck -6.9355 4.83801 -6.71521
upperneck -7.14002 6.96849 -0.23123
head -1.30858 3.70366 1.09207
rclavicle -1.09033e-013 4.35338e-014
rhumerus -48.697 17.9641 -86.1435
rradius 64.499
rwrist 4.36964
rhand -16.9034 12.8287
rfingers 7.12502
rthumb 9.32857 -16.9449
lclavicle -1.09033e-013 4.35338e-014
lhumerus -26.8279 -23.0163 94.551
lradius 101.922
lwrist 202.316
lhand -28.4328 16.1487
lfingers 7.12502
lthumb -1.80395 46.1209
rfemur -35.9497 -2.89315 28.5489
rtibia 58.3788
rfoot -23.3613 -0.124035
rtoes -20.8954
lfemur 3.83103 -8.16439 -7.98507
ltibia 62.2483
lfoot 6.39326 0.239658
ltoes -42.0624
80
root -18.6689 16.3082 -19.7023 168.893 125.352 -555.684
lowerback 14.1104 -3.92339 5.53945
upperback 8.23165 -4.17104 3.68642
thorax 0.703422 -1.85733 1.30925
lowerneck -7.16841 4.84755 -6.74002
upperneck -7.49852 6.99082 -0.577311
head -1.37212 3.73151 0.987268
rclavicle 9.0447e-015 -9.24349e-015
rhumerus -47.5895 19.068 -86.5688
rradius 66.1658
rwrist 3.8245
rhand -17.0574 12.8254
rfingers 7.12502
rthumb 9.17995 -16.9548
lclavicle 9.0447e-015 -9.24349e-015
lhumerus -27.3171 -21.9949 94.3644
lradius 100.734
lwrist 201.759
lhand -28.2793 16.0652
lfingers 7.12502
lthumb -1.65571 46.0385
rfemur -35.1611 -2.58661 29.1195
rtibia 58.6098
rfoot -23.6157 -0.262781
rtoes -19.6441
lfemur 1.2168 -8.11392 -7.61805
ltibia 66.7259
lfoot 8.19891 -0.202782
ltoes -40.3124
81
root -18.5471 16.2832 -19.5505 168.465 125.815 -556.077
lowerback 14.6745 -3.76934 5.93395
upperback 8.41756 -3.86446 3.72745
thorax 0.59015 -1.68511 1.11964
lowerneck -7.51888 4.8677 -6.63199
upperneck -7.7855 7.02715 -0.96234
head -1.38673 3.76172 0.852796
rclavicle 5.33737e-014 -3.04141e-014
rhumerus -46.2971 20.3327 -87.0773
rradius 67.8547
rwrist 3.14109
rhand -17.2572 12.87
rfingers 7.12502
rthumb 8.98719 -16.9185
lclavicle 5.33737e-014 -3.04141e-014
lhumerus -27.6932 -20.9214 94.0286
lradius 99.423
lwrist 201.039
lhand -28.1614 15.8937
lfingers 7.12502
lthumb -1.54175 45.8679
rfemur -34.3868 -2.27756 29.6925
rtibia 58.8062
rfoot -23.8844 -0.409892
rtoes -18.5356
lfemur -1.44832 -7.91045 -7.22543
ltibia 70.9969
lfoot 9.04445 -0.899353
ltoes -39.2506
82
root -18.4238 16.2578 -19.4002 168.172 126.324 -556.352
lowerback 15.218 -3.59057 6.28951
upperback 8.59796 -3.53041 3.72916
thorax 0.487549 -1.50012 0.900918
lowerneck -7.93685 4.87972 -6.47794
upperneck -8.03821 7.05492 -1.33783
head -1.37765 3.78533 0.716807
rclavicle 2.98177e-016 -2.75317e-014
rhumerus -44.8442 21.6819 -87.5517
rradius 69.6154
rwrist 2.45619
rhand -17.361 12.9273
rfingers 7.12502
rthumb 8.88695 -16.8655
lclavicle 2.98177e-016 -2.75317e-014
lhumerus -28.0028 -19.7973 93.6323
lradius 97.9342
lwrist 200.121
lhand -27.9797 15.6489
lfingers 7.12502
lthumb -1.36634 45.6243
rfemur -33.6325 -1.96291 30.1978
rtibia 58.9595
rfoot -24.164 -0.507893
rtoes -17.5405
lfemur -4.16262 -7.55247 -6.87533
ltibia 75.017
lfoot 9.1263 -1.59848
ltoes -37.9038
83
root -18.2969 16.2366 -19.2502 167.95 126.893 -556.597
lowerback 15.7549 -3.39343 6.65538
upperback 8.7312 -3.16818 3.72312
thorax 0.343923 -1.30309 0.660158
lowerneck -8.37226 4.89292 -6.40092
upperneck -8.18537 7.09346 -1.64667
head -1.33855 3.81195 0.617367
rclavicle 1.83876e-014 1.70955e-014
rhumerus -43.3967 23.2054 -87.9734
rradius 71.5343
rwrist 1.68377
rhand -17.3569 13.1087
rfingers 7.12502
rthumb 8.89097 -16.6839
lclavicle 1.83876e-014 1.70955e-014
lhumerus -28.3536 -18.6466 93.2191
lradius 96.3209
lwrist 198.961
lhand -27.698 15.2115
lfingers 7.12502
lthumb -1.09421 45.1884
rfemur -32.8687 -1.6328 30.6959
rtibia 59.0499
rfoot -24.4917 -0.574962
rtoes -16.8024
lfemur -6.93099 -7.04128 -6.5171
ltibia 78.7442
lfoot 8.72679 -2.19078
ltoes -35.5598
84
root -18.1667 16.2202 -19.099 167.792 127.491 -556.774
lowerback 16.3434 -3.16723 6.95689
upperback 8.80962 -2.76623 3.73777
thorax 0.125867 -1.09266 0.46859
lowerneck -8.71846 4.9119 -6.33194
upperneck -8.33705 7.12896 -2.03224
head -1.3129 3.83771 0.493147
rclavicle 8.0309e-014 -1.53064e-014
rhumerus -41.9484 24.7976 -88.2238
rradius 73.5507
rwrist 1.01371
rhand -17.1738 13.4189
rfingers 7.12502
rthumb 9.06764 -16.3662
lclavicle 8.0309e-014 -1.53064e-014
lhumerus -28.7992 -17.4293 92.8677
lradius 94.5752
lwrist 197.55
lhand -27.2704 14.6251
lfingers 7.12502
lthumb -0.681247 44.6038
rfemur -32.0523 -1.31977 31.1551
rtibia 59.0648
rfoot -24.8651 -0.604166
rtoes -16.3517
lfemur -9.6596 -6.40968 -6.18757
ltibia 82.116
lfoot 8.10033 -2.73068
ltoes -33.6441
